<svg xmlns="http://www.w3.org/2000/svg" width="24" height="24" viewBox="0 0 24 24"><rect width="24" height="24" fill="none" opacity="0"/><path d="M19.056,2h-14a3,3,0,0,0-3,3V19a3,3,0,0,0,3,3h14a3,3,0,0,0,3-3V5a3,3,0,0,0-3-3Zm-14,2h14a1,1,0,0,1,1,1v8H17.591a2,2,0,0,0-1.664.891L14.521,16H9.591L8.185,13.891A2,2,0,0,0,6.521,13H4.056V5a1,1,0,0,1,1-1Zm14,16h-14a1,1,0,0,1-1-1V15H6.521l1.406,2.109A2,2,0,0,0,9.591,18h4.93a2,2,0,0,0,1.664-.891L17.591,15h2.465v4a1,1,0,0,1-1,1Z" transform="translate(-0.056)" fill="#18b290"/></svg>