<svg xmlns="http://www.w3.org/2000/svg" width="24" height="24" viewBox="0 0 24 24"><g transform="translate(0 0.254)"><rect width="24" height="24" transform="translate(0 -0.254)" fill="none" opacity="0"/><path d="M14,11.984h2.42a.975.975,0,0,0,.71-.305l4.58-4.821a1.092,1.092,0,0,0,0-1.495L19.29,2.816a.965.965,0,0,0-1.42,0L13.29,7.637a1.136,1.136,0,0,0-.29.747v2.547A1.027,1.027,0,0,0,14,11.984Zm1-3.158,3.58-3.769,1,1.053L16,9.879H15Zm6,2.105a1.027,1.027,0,0,0-1,1.053v7.369a1.027,1.027,0,0,1-1,1.053H5a1.027,1.027,0,0,1-1-1.053V9.237l5.88,6.2a2.9,2.9,0,0,0,4.27,0,1.093,1.093,0,0,0,0-1.474.965.965,0,0,0-1.43,0,.965.965,0,0,1-1.4,0L5.41,7.753H10a1.054,1.054,0,0,0,0-2.105H5A3.082,3.082,0,0,0,2,8.805V19.332A3.082,3.082,0,0,0,5,22.49H19a3.082,3.082,0,0,0,3-3.158V11.963a1.027,1.027,0,0,0-1-1.053Z" transform="translate(0 -0.655)" fill="#18b290"/></g></svg>